<svg width="30" height="30" viewBox="0 0 30 30" fill="none" xmlns="http://www.w3.org/2000/svg">
<path d="M15 9.54545C11.9864 9.54545 9.54545 11.9864 9.54545 15C9.54545 18.0136 11.9864 20.4545 15 20.4545C18.0136 20.4545 20.4545 18.0136 20.4545 15C20.4545 11.9864 18.0136 9.54545 15 9.54545ZM27.1909 13.6364C26.5636 7.95 22.05 3.43636 16.3636 2.80909V0H13.6364V2.80909C7.95 3.43636 3.43636 7.95 2.80909 13.6364H0V16.3636H2.80909C3.43636 22.05 7.95 26.5636 13.6364 27.1909V30H16.3636V27.1909C22.05 26.5636 26.5636 22.05 27.1909 16.3636H30V13.6364H27.1909ZM15 24.5455C9.72273 24.5455 5.45455 20.2773 5.45455 15C5.45455 9.72273 9.72273 5.45455 15 5.45455C20.2773 5.45455 24.5455 9.72273 24.5455 15C24.5455 20.2773 20.2773 24.5455 15 24.5455Z" fill="#FAC358"/>
</svg>
